<mxfile host="app.diagrams.net" agent="Mozilla/5.0 (Windows NT 10.0; Win64; x64) AppleWebKit/537.36 (KHTML, like Gecko) Chrome/140.0.0.0 Safari/537.36" version="28.2.7">
  <diagram name="PÃ¡gina-1" id="MHhO3B8RtaJONkMKsSJi">
    <mxGraphModel dx="2013" dy="755" grid="1" gridSize="10" guides="1" tooltips="1" connect="1" arrows="1" fold="1" page="1" pageScale="1" pageWidth="827" pageHeight="1169" math="0" shadow="0">
      <root>
        <mxCell id="0" />
        <mxCell id="1" parent="0" />
        <mxCell id="IU_N7pR2QT1F5y08y8DE-42" style="shape=connector;rounded=0;orthogonalLoop=1;jettySize=auto;html=1;strokeColor=default;align=center;verticalAlign=middle;fontFamily=Helvetica;fontSize=11;fontColor=default;labelBackgroundColor=default;endArrow=none;endFill=0;edgeStyle=orthogonalEdgeStyle;" parent="1" source="IU_N7pR2QT1F5y08y8DE-1" target="IU_N7pR2QT1F5y08y8DE-36" edge="1">
          <mxGeometry relative="1" as="geometry" />
        </mxCell>
        <mxCell id="IU_N7pR2QT1F5y08y8DE-62" value="1" style="edgeLabel;html=1;align=center;verticalAlign=middle;resizable=0;points=[];fontFamily=Helvetica;fontSize=11;fontColor=default;labelBackgroundColor=default;" parent="IU_N7pR2QT1F5y08y8DE-42" vertex="1" connectable="0">
          <mxGeometry x="-0.7532" y="-2" relative="1" as="geometry">
            <mxPoint as="offset" />
          </mxGeometry>
        </mxCell>
        <mxCell id="IU_N7pR2QT1F5y08y8DE-58" style="edgeStyle=orthogonalEdgeStyle;shape=link;rounded=0;orthogonalLoop=1;jettySize=auto;html=1;entryX=0.5;entryY=0;entryDx=0;entryDy=0;strokeColor=default;align=center;verticalAlign=middle;fontFamily=Helvetica;fontSize=11;fontColor=default;labelBackgroundColor=default;endArrow=none;endFill=0;" parent="1" source="IU_N7pR2QT1F5y08y8DE-1" target="IU_N7pR2QT1F5y08y8DE-41" edge="1">
          <mxGeometry relative="1" as="geometry" />
        </mxCell>
        <mxCell id="IU_N7pR2QT1F5y08y8DE-63" value="N" style="edgeLabel;html=1;align=center;verticalAlign=middle;resizable=0;points=[];fontFamily=Helvetica;fontSize=11;fontColor=default;labelBackgroundColor=default;" parent="IU_N7pR2QT1F5y08y8DE-58" vertex="1" connectable="0">
          <mxGeometry x="-0.32" y="-2" relative="1" as="geometry">
            <mxPoint as="offset" />
          </mxGeometry>
        </mxCell>
        <mxCell id="IU_N7pR2QT1F5y08y8DE-1" value="ALUNO" style="whiteSpace=wrap;html=1;align=center;" parent="1" vertex="1">
          <mxGeometry x="70" y="110" width="100" height="40" as="geometry" />
        </mxCell>
        <mxCell id="IU_N7pR2QT1F5y08y8DE-44" style="edgeStyle=orthogonalEdgeStyle;shape=link;rounded=0;orthogonalLoop=1;jettySize=auto;html=1;strokeColor=default;align=center;verticalAlign=middle;fontFamily=Helvetica;fontSize=11;fontColor=default;labelBackgroundColor=default;endArrow=none;endFill=0;" parent="1" source="IU_N7pR2QT1F5y08y8DE-2" target="IU_N7pR2QT1F5y08y8DE-36" edge="1">
          <mxGeometry relative="1" as="geometry" />
        </mxCell>
        <mxCell id="IU_N7pR2QT1F5y08y8DE-61" value="N" style="edgeLabel;html=1;align=center;verticalAlign=middle;resizable=0;points=[];fontFamily=Helvetica;fontSize=11;fontColor=default;labelBackgroundColor=default;" parent="IU_N7pR2QT1F5y08y8DE-44" vertex="1" connectable="0">
          <mxGeometry x="-0.6503" y="-2" relative="1" as="geometry">
            <mxPoint as="offset" />
          </mxGeometry>
        </mxCell>
        <mxCell id="IU_N7pR2QT1F5y08y8DE-2" value="NOTA" style="whiteSpace=wrap;html=1;align=center;" parent="1" vertex="1">
          <mxGeometry x="587" y="110" width="100" height="40" as="geometry" />
        </mxCell>
        <mxCell id="IU_N7pR2QT1F5y08y8DE-50" style="edgeStyle=orthogonalEdgeStyle;shape=connector;rounded=0;orthogonalLoop=1;jettySize=auto;html=1;entryX=1;entryY=0.5;entryDx=0;entryDy=0;strokeColor=default;align=center;verticalAlign=middle;fontFamily=Helvetica;fontSize=11;fontColor=default;labelBackgroundColor=default;endArrow=none;endFill=0;" parent="1" source="IU_N7pR2QT1F5y08y8DE-3" target="IU_N7pR2QT1F5y08y8DE-38" edge="1">
          <mxGeometry relative="1" as="geometry" />
        </mxCell>
        <mxCell id="IU_N7pR2QT1F5y08y8DE-70" value="1" style="edgeLabel;html=1;align=center;verticalAlign=middle;resizable=0;points=[];fontFamily=Helvetica;fontSize=11;fontColor=default;labelBackgroundColor=default;" parent="IU_N7pR2QT1F5y08y8DE-50" vertex="1" connectable="0">
          <mxGeometry x="-0.4333" y="-1" relative="1" as="geometry">
            <mxPoint as="offset" />
          </mxGeometry>
        </mxCell>
        <mxCell id="IU_N7pR2QT1F5y08y8DE-3" value="PROFESSOR" style="whiteSpace=wrap;html=1;align=center;" parent="1" vertex="1">
          <mxGeometry x="687" y="430" width="100" height="40" as="geometry" />
        </mxCell>
        <mxCell id="IU_N7pR2QT1F5y08y8DE-46" style="edgeStyle=orthogonalEdgeStyle;shape=connector;rounded=0;orthogonalLoop=1;jettySize=auto;html=1;entryX=0;entryY=0.5;entryDx=0;entryDy=0;strokeColor=default;align=center;verticalAlign=middle;fontFamily=Helvetica;fontSize=11;fontColor=default;labelBackgroundColor=default;endArrow=none;endFill=0;" parent="1" source="IU_N7pR2QT1F5y08y8DE-4" target="IU_N7pR2QT1F5y08y8DE-37" edge="1">
          <mxGeometry relative="1" as="geometry" />
        </mxCell>
        <mxCell id="IU_N7pR2QT1F5y08y8DE-71" value="1" style="edgeLabel;html=1;align=center;verticalAlign=middle;resizable=0;points=[];fontFamily=Helvetica;fontSize=11;fontColor=default;labelBackgroundColor=default;" parent="IU_N7pR2QT1F5y08y8DE-46" vertex="1" connectable="0">
          <mxGeometry x="-0.7869" y="-1" relative="1" as="geometry">
            <mxPoint as="offset" />
          </mxGeometry>
        </mxCell>
        <mxCell id="IU_N7pR2QT1F5y08y8DE-47" style="edgeStyle=orthogonalEdgeStyle;shape=link;rounded=0;orthogonalLoop=1;jettySize=auto;html=1;entryX=1;entryY=0.5;entryDx=0;entryDy=0;strokeColor=default;align=center;verticalAlign=middle;fontFamily=Helvetica;fontSize=11;fontColor=default;labelBackgroundColor=default;endArrow=none;endFill=0;" parent="1" source="IU_N7pR2QT1F5y08y8DE-4" target="IU_N7pR2QT1F5y08y8DE-39" edge="1">
          <mxGeometry relative="1" as="geometry" />
        </mxCell>
        <mxCell id="IU_N7pR2QT1F5y08y8DE-68" value="N" style="edgeLabel;html=1;align=center;verticalAlign=middle;resizable=0;points=[];fontFamily=Helvetica;fontSize=11;fontColor=default;labelBackgroundColor=default;" parent="IU_N7pR2QT1F5y08y8DE-47" vertex="1" connectable="0">
          <mxGeometry x="-0.525" y="-2" relative="1" as="geometry">
            <mxPoint as="offset" />
          </mxGeometry>
        </mxCell>
        <mxCell id="IU_N7pR2QT1F5y08y8DE-4" value="MODULO" style="whiteSpace=wrap;html=1;align=center;" parent="1" vertex="1">
          <mxGeometry x="360" y="500" width="100" height="40" as="geometry" />
        </mxCell>
        <mxCell id="IU_N7pR2QT1F5y08y8DE-48" style="edgeStyle=orthogonalEdgeStyle;shape=link;rounded=0;orthogonalLoop=1;jettySize=auto;html=1;entryX=0;entryY=0.5;entryDx=0;entryDy=0;strokeColor=default;align=center;verticalAlign=middle;fontFamily=Helvetica;fontSize=11;fontColor=default;labelBackgroundColor=default;endArrow=none;endFill=0;" parent="1" source="IU_N7pR2QT1F5y08y8DE-5" target="IU_N7pR2QT1F5y08y8DE-39" edge="1">
          <mxGeometry relative="1" as="geometry" />
        </mxCell>
        <mxCell id="IU_N7pR2QT1F5y08y8DE-67" value="1" style="edgeLabel;html=1;align=center;verticalAlign=middle;resizable=0;points=[];fontFamily=Helvetica;fontSize=11;fontColor=default;labelBackgroundColor=default;" parent="IU_N7pR2QT1F5y08y8DE-48" vertex="1" connectable="0">
          <mxGeometry x="0.1333" y="1" relative="1" as="geometry">
            <mxPoint as="offset" />
          </mxGeometry>
        </mxCell>
        <mxCell id="IU_N7pR2QT1F5y08y8DE-54" style="edgeStyle=orthogonalEdgeStyle;shape=link;rounded=0;orthogonalLoop=1;jettySize=auto;html=1;strokeColor=default;align=center;verticalAlign=middle;fontFamily=Helvetica;fontSize=11;fontColor=default;labelBackgroundColor=default;endArrow=none;endFill=0;" parent="1" source="IU_N7pR2QT1F5y08y8DE-5" target="IU_N7pR2QT1F5y08y8DE-40" edge="1">
          <mxGeometry relative="1" as="geometry" />
        </mxCell>
        <mxCell id="IU_N7pR2QT1F5y08y8DE-65" value="N" style="edgeLabel;html=1;align=center;verticalAlign=middle;resizable=0;points=[];fontFamily=Helvetica;fontSize=11;fontColor=default;labelBackgroundColor=default;" parent="IU_N7pR2QT1F5y08y8DE-54" vertex="1" connectable="0">
          <mxGeometry x="-0.2" y="1" relative="1" as="geometry">
            <mxPoint as="offset" />
          </mxGeometry>
        </mxCell>
        <mxCell id="IU_N7pR2QT1F5y08y8DE-5" value="DISCIPLINA" style="whiteSpace=wrap;html=1;align=center;" parent="1" vertex="1">
          <mxGeometry y="500" width="100" height="40" as="geometry" />
        </mxCell>
        <mxCell id="IU_N7pR2QT1F5y08y8DE-56" style="edgeStyle=orthogonalEdgeStyle;shape=link;rounded=0;orthogonalLoop=1;jettySize=auto;html=1;entryX=0.5;entryY=0;entryDx=0;entryDy=0;strokeColor=default;align=center;verticalAlign=middle;fontFamily=Helvetica;fontSize=11;fontColor=default;labelBackgroundColor=default;endArrow=none;endFill=0;" parent="1" source="IU_N7pR2QT1F5y08y8DE-6" target="IU_N7pR2QT1F5y08y8DE-40" edge="1">
          <mxGeometry relative="1" as="geometry" />
        </mxCell>
        <mxCell id="IU_N7pR2QT1F5y08y8DE-66" value="M" style="edgeLabel;html=1;align=center;verticalAlign=middle;resizable=0;points=[];fontFamily=Helvetica;fontSize=11;fontColor=default;labelBackgroundColor=default;" parent="IU_N7pR2QT1F5y08y8DE-56" vertex="1" connectable="0">
          <mxGeometry x="-0.4" relative="1" as="geometry">
            <mxPoint as="offset" />
          </mxGeometry>
        </mxCell>
        <mxCell id="IU_N7pR2QT1F5y08y8DE-59" style="edgeStyle=orthogonalEdgeStyle;shape=link;rounded=0;orthogonalLoop=1;jettySize=auto;html=1;entryX=0.5;entryY=1;entryDx=0;entryDy=0;strokeColor=default;align=center;verticalAlign=middle;fontFamily=Helvetica;fontSize=11;fontColor=default;labelBackgroundColor=default;endArrow=none;endFill=0;" parent="1" source="IU_N7pR2QT1F5y08y8DE-6" target="IU_N7pR2QT1F5y08y8DE-41" edge="1">
          <mxGeometry relative="1" as="geometry" />
        </mxCell>
        <mxCell id="IU_N7pR2QT1F5y08y8DE-64" value="1" style="edgeLabel;html=1;align=center;verticalAlign=middle;resizable=0;points=[];fontFamily=Helvetica;fontSize=11;fontColor=default;labelBackgroundColor=default;" parent="IU_N7pR2QT1F5y08y8DE-59" vertex="1" connectable="0">
          <mxGeometry x="-0.7077" y="1" relative="1" as="geometry">
            <mxPoint as="offset" />
          </mxGeometry>
        </mxCell>
        <mxCell id="IU_N7pR2QT1F5y08y8DE-6" value="CRUSO" style="whiteSpace=wrap;html=1;align=center;" parent="1" vertex="1">
          <mxGeometry y="320" width="100" height="40" as="geometry" />
        </mxCell>
        <mxCell id="IU_N7pR2QT1F5y08y8DE-22" style="rounded=0;orthogonalLoop=1;jettySize=auto;html=1;endArrow=none;endFill=0;" parent="1" source="IU_N7pR2QT1F5y08y8DE-8" target="IU_N7pR2QT1F5y08y8DE-1" edge="1">
          <mxGeometry relative="1" as="geometry" />
        </mxCell>
        <mxCell id="IU_N7pR2QT1F5y08y8DE-8" value="NomeAluno" style="ellipse;whiteSpace=wrap;html=1;align=center;" parent="1" vertex="1">
          <mxGeometry y="50" width="100" height="40" as="geometry" />
        </mxCell>
        <mxCell id="IU_N7pR2QT1F5y08y8DE-23" style="edgeStyle=none;shape=connector;rounded=0;orthogonalLoop=1;jettySize=auto;html=1;strokeColor=default;align=center;verticalAlign=middle;fontFamily=Helvetica;fontSize=11;fontColor=default;labelBackgroundColor=default;endArrow=none;endFill=0;" parent="1" source="IU_N7pR2QT1F5y08y8DE-9" target="IU_N7pR2QT1F5y08y8DE-1" edge="1">
          <mxGeometry relative="1" as="geometry" />
        </mxCell>
        <mxCell id="IU_N7pR2QT1F5y08y8DE-9" value="DataNascimento" style="ellipse;whiteSpace=wrap;html=1;align=center;" parent="1" vertex="1">
          <mxGeometry x="110" y="40" width="100" height="40" as="geometry" />
        </mxCell>
        <mxCell id="IU_N7pR2QT1F5y08y8DE-24" style="edgeStyle=none;shape=connector;rounded=0;orthogonalLoop=1;jettySize=auto;html=1;strokeColor=default;align=center;verticalAlign=middle;fontFamily=Helvetica;fontSize=11;fontColor=default;labelBackgroundColor=default;endArrow=none;endFill=0;" parent="1" source="IU_N7pR2QT1F5y08y8DE-11" target="IU_N7pR2QT1F5y08y8DE-1" edge="1">
          <mxGeometry relative="1" as="geometry" />
        </mxCell>
        <mxCell id="IU_N7pR2QT1F5y08y8DE-11" value="NumAluno" style="ellipse;whiteSpace=wrap;html=1;align=center;fontStyle=4;" parent="1" vertex="1">
          <mxGeometry x="-50" y="110" width="100" height="40" as="geometry" />
        </mxCell>
        <mxCell id="IU_N7pR2QT1F5y08y8DE-27" style="edgeStyle=none;shape=connector;rounded=0;orthogonalLoop=1;jettySize=auto;html=1;strokeColor=default;align=center;verticalAlign=middle;fontFamily=Helvetica;fontSize=11;fontColor=default;labelBackgroundColor=default;endArrow=none;endFill=0;" parent="1" source="IU_N7pR2QT1F5y08y8DE-12" target="IU_N7pR2QT1F5y08y8DE-2" edge="1">
          <mxGeometry relative="1" as="geometry" />
        </mxCell>
        <mxCell id="IU_N7pR2QT1F5y08y8DE-12" value="Valor" style="ellipse;whiteSpace=wrap;html=1;align=center;" parent="1" vertex="1">
          <mxGeometry x="627" y="50" width="100" height="40" as="geometry" />
        </mxCell>
        <mxCell id="IU_N7pR2QT1F5y08y8DE-28" style="edgeStyle=none;shape=connector;rounded=0;orthogonalLoop=1;jettySize=auto;html=1;strokeColor=default;align=center;verticalAlign=middle;fontFamily=Helvetica;fontSize=11;fontColor=default;labelBackgroundColor=default;endArrow=none;endFill=0;" parent="1" source="IU_N7pR2QT1F5y08y8DE-13" target="IU_N7pR2QT1F5y08y8DE-2" edge="1">
          <mxGeometry relative="1" as="geometry" />
        </mxCell>
        <mxCell id="IU_N7pR2QT1F5y08y8DE-13" value="DataNota" style="ellipse;whiteSpace=wrap;html=1;align=center;" parent="1" vertex="1">
          <mxGeometry x="727" y="100" width="100" height="40" as="geometry" />
        </mxCell>
        <mxCell id="IU_N7pR2QT1F5y08y8DE-29" style="edgeStyle=none;shape=connector;rounded=0;orthogonalLoop=1;jettySize=auto;html=1;strokeColor=default;align=center;verticalAlign=middle;fontFamily=Helvetica;fontSize=11;fontColor=default;labelBackgroundColor=default;endArrow=none;endFill=0;" parent="1" source="IU_N7pR2QT1F5y08y8DE-14" target="IU_N7pR2QT1F5y08y8DE-3" edge="1">
          <mxGeometry relative="1" as="geometry" />
        </mxCell>
        <mxCell id="IU_N7pR2QT1F5y08y8DE-14" value="Email" style="ellipse;whiteSpace=wrap;html=1;align=center;fontStyle=4;" parent="1" vertex="1">
          <mxGeometry x="760" y="380" width="100" height="40" as="geometry" />
        </mxCell>
        <mxCell id="IU_N7pR2QT1F5y08y8DE-30" style="edgeStyle=none;shape=connector;rounded=0;orthogonalLoop=1;jettySize=auto;html=1;strokeColor=default;align=center;verticalAlign=middle;fontFamily=Helvetica;fontSize=11;fontColor=default;labelBackgroundColor=default;endArrow=none;endFill=0;" parent="1" source="IU_N7pR2QT1F5y08y8DE-15" target="IU_N7pR2QT1F5y08y8DE-3" edge="1">
          <mxGeometry relative="1" as="geometry" />
        </mxCell>
        <mxCell id="IU_N7pR2QT1F5y08y8DE-15" value="Nome" style="ellipse;whiteSpace=wrap;html=1;align=center;" parent="1" vertex="1">
          <mxGeometry x="800" y="470" width="100" height="40" as="geometry" />
        </mxCell>
        <mxCell id="IU_N7pR2QT1F5y08y8DE-32" style="edgeStyle=none;shape=connector;rounded=0;orthogonalLoop=1;jettySize=auto;html=1;strokeColor=default;align=center;verticalAlign=middle;fontFamily=Helvetica;fontSize=11;fontColor=default;labelBackgroundColor=default;endArrow=none;endFill=0;" parent="1" source="IU_N7pR2QT1F5y08y8DE-16" target="IU_N7pR2QT1F5y08y8DE-4" edge="1">
          <mxGeometry relative="1" as="geometry" />
        </mxCell>
        <mxCell id="IU_N7pR2QT1F5y08y8DE-16" value="CodModulo" style="ellipse;whiteSpace=wrap;html=1;align=center;fontStyle=4;" parent="1" vertex="1">
          <mxGeometry x="310" y="580" width="100" height="40" as="geometry" />
        </mxCell>
        <mxCell id="IU_N7pR2QT1F5y08y8DE-31" style="edgeStyle=none;shape=connector;rounded=0;orthogonalLoop=1;jettySize=auto;html=1;strokeColor=default;align=center;verticalAlign=middle;fontFamily=Helvetica;fontSize=11;fontColor=default;labelBackgroundColor=default;endArrow=none;endFill=0;" parent="1" source="IU_N7pR2QT1F5y08y8DE-17" target="IU_N7pR2QT1F5y08y8DE-4" edge="1">
          <mxGeometry relative="1" as="geometry" />
        </mxCell>
        <mxCell id="IU_N7pR2QT1F5y08y8DE-17" value="Descricao" style="ellipse;whiteSpace=wrap;html=1;align=center;" parent="1" vertex="1">
          <mxGeometry x="424" y="590" width="100" height="40" as="geometry" />
        </mxCell>
        <mxCell id="IU_N7pR2QT1F5y08y8DE-26" style="edgeStyle=none;shape=connector;rounded=0;orthogonalLoop=1;jettySize=auto;html=1;strokeColor=default;align=center;verticalAlign=middle;fontFamily=Helvetica;fontSize=11;fontColor=default;labelBackgroundColor=default;endArrow=none;endFill=0;" parent="1" source="IU_N7pR2QT1F5y08y8DE-18" target="IU_N7pR2QT1F5y08y8DE-6" edge="1">
          <mxGeometry relative="1" as="geometry" />
        </mxCell>
        <mxCell id="IU_N7pR2QT1F5y08y8DE-18" value="NomeCurso" style="ellipse;whiteSpace=wrap;html=1;align=center;" parent="1" vertex="1">
          <mxGeometry x="-130" y="340" width="100" height="40" as="geometry" />
        </mxCell>
        <mxCell id="IU_N7pR2QT1F5y08y8DE-25" style="edgeStyle=none;shape=connector;rounded=0;orthogonalLoop=1;jettySize=auto;html=1;strokeColor=default;align=center;verticalAlign=middle;fontFamily=Helvetica;fontSize=11;fontColor=default;labelBackgroundColor=default;endArrow=none;endFill=0;" parent="1" source="IU_N7pR2QT1F5y08y8DE-19" target="IU_N7pR2QT1F5y08y8DE-6" edge="1">
          <mxGeometry relative="1" as="geometry" />
        </mxCell>
        <mxCell id="IU_N7pR2QT1F5y08y8DE-19" value="CodCurso" style="ellipse;whiteSpace=wrap;html=1;align=center;fontStyle=4;" parent="1" vertex="1">
          <mxGeometry x="-130" y="290" width="100" height="40" as="geometry" />
        </mxCell>
        <mxCell id="IU_N7pR2QT1F5y08y8DE-34" style="edgeStyle=none;shape=connector;rounded=0;orthogonalLoop=1;jettySize=auto;html=1;strokeColor=default;align=center;verticalAlign=middle;fontFamily=Helvetica;fontSize=11;fontColor=default;labelBackgroundColor=default;endArrow=none;endFill=0;" parent="1" source="IU_N7pR2QT1F5y08y8DE-20" target="IU_N7pR2QT1F5y08y8DE-5" edge="1">
          <mxGeometry relative="1" as="geometry" />
        </mxCell>
        <mxCell id="IU_N7pR2QT1F5y08y8DE-20" value="Disciplina" style="ellipse;whiteSpace=wrap;html=1;align=center;" parent="1" vertex="1">
          <mxGeometry x="-140" y="500" width="100" height="40" as="geometry" />
        </mxCell>
        <mxCell id="IU_N7pR2QT1F5y08y8DE-33" style="edgeStyle=none;shape=connector;rounded=0;orthogonalLoop=1;jettySize=auto;html=1;strokeColor=default;align=center;verticalAlign=middle;fontFamily=Helvetica;fontSize=11;fontColor=default;labelBackgroundColor=default;endArrow=none;endFill=0;" parent="1" source="IU_N7pR2QT1F5y08y8DE-21" target="IU_N7pR2QT1F5y08y8DE-5" edge="1">
          <mxGeometry relative="1" as="geometry" />
        </mxCell>
        <mxCell id="IU_N7pR2QT1F5y08y8DE-21" value="CodDisciplina" style="ellipse;whiteSpace=wrap;html=1;align=center;fontStyle=4;" parent="1" vertex="1">
          <mxGeometry x="-60" y="580" width="100" height="40" as="geometry" />
        </mxCell>
        <mxCell id="IU_N7pR2QT1F5y08y8DE-36" value="ALUNO_TEM_NOTA" style="shape=rhombus;perimeter=rhombusPerimeter;whiteSpace=wrap;html=1;align=center;fontFamily=Helvetica;fontSize=11;fontColor=default;labelBackgroundColor=default;" parent="1" vertex="1">
          <mxGeometry x="324" y="100" width="120" height="60" as="geometry" />
        </mxCell>
        <mxCell id="IU_N7pR2QT1F5y08y8DE-45" style="edgeStyle=orthogonalEdgeStyle;shape=link;rounded=0;orthogonalLoop=1;jettySize=auto;html=1;entryX=0.5;entryY=1;entryDx=0;entryDy=0;strokeColor=default;align=center;verticalAlign=middle;fontFamily=Helvetica;fontSize=11;fontColor=default;labelBackgroundColor=default;endArrow=none;endFill=0;" parent="1" source="IU_N7pR2QT1F5y08y8DE-37" target="IU_N7pR2QT1F5y08y8DE-2" edge="1">
          <mxGeometry relative="1" as="geometry" />
        </mxCell>
        <mxCell id="IU_N7pR2QT1F5y08y8DE-72" value="N" style="edgeLabel;html=1;align=center;verticalAlign=middle;resizable=0;points=[];fontFamily=Helvetica;fontSize=11;fontColor=default;labelBackgroundColor=default;" parent="IU_N7pR2QT1F5y08y8DE-45" vertex="1" connectable="0">
          <mxGeometry x="0.7746" y="-3" relative="1" as="geometry">
            <mxPoint as="offset" />
          </mxGeometry>
        </mxCell>
        <mxCell id="IU_N7pR2QT1F5y08y8DE-37" value="NOTA_DE_MODULO" style="shape=rhombus;perimeter=rhombusPerimeter;whiteSpace=wrap;html=1;align=center;fontFamily=Helvetica;fontSize=11;fontColor=default;labelBackgroundColor=default;" parent="1" vertex="1">
          <mxGeometry x="444" y="260" width="120" height="60" as="geometry" />
        </mxCell>
        <mxCell id="IU_N7pR2QT1F5y08y8DE-53" style="edgeStyle=orthogonalEdgeStyle;shape=link;rounded=0;orthogonalLoop=1;jettySize=auto;html=1;entryX=0.75;entryY=0;entryDx=0;entryDy=0;strokeColor=default;align=center;verticalAlign=middle;fontFamily=Helvetica;fontSize=11;fontColor=default;labelBackgroundColor=default;endArrow=none;endFill=0;" parent="1" source="IU_N7pR2QT1F5y08y8DE-38" target="IU_N7pR2QT1F5y08y8DE-4" edge="1">
          <mxGeometry relative="1" as="geometry" />
        </mxCell>
        <mxCell id="IU_N7pR2QT1F5y08y8DE-69" value="N" style="edgeLabel;html=1;align=center;verticalAlign=middle;resizable=0;points=[];fontFamily=Helvetica;fontSize=11;fontColor=default;labelBackgroundColor=default;" parent="IU_N7pR2QT1F5y08y8DE-53" vertex="1" connectable="0">
          <mxGeometry x="0.6066" relative="1" as="geometry">
            <mxPoint as="offset" />
          </mxGeometry>
        </mxCell>
        <mxCell id="IU_N7pR2QT1F5y08y8DE-38" value="R2" style="shape=rhombus;perimeter=rhombusPerimeter;whiteSpace=wrap;html=1;align=center;fontFamily=Helvetica;fontSize=11;fontColor=default;labelBackgroundColor=default;" parent="1" vertex="1">
          <mxGeometry x="507" y="420" width="120" height="60" as="geometry" />
        </mxCell>
        <mxCell id="IU_N7pR2QT1F5y08y8DE-39" value="R1" style="shape=rhombus;perimeter=rhombusPerimeter;whiteSpace=wrap;html=1;align=center;fontFamily=Helvetica;fontSize=11;fontColor=default;labelBackgroundColor=default;" parent="1" vertex="1">
          <mxGeometry x="160" y="490" width="120" height="60" as="geometry" />
        </mxCell>
        <mxCell id="IU_N7pR2QT1F5y08y8DE-40" value="R3" style="shape=rhombus;perimeter=rhombusPerimeter;whiteSpace=wrap;html=1;align=center;fontFamily=Helvetica;fontSize=11;fontColor=default;labelBackgroundColor=default;" parent="1" vertex="1">
          <mxGeometry x="-10" y="400" width="120" height="60" as="geometry" />
        </mxCell>
        <mxCell id="IU_N7pR2QT1F5y08y8DE-41" value="R4" style="shape=rhombus;perimeter=rhombusPerimeter;whiteSpace=wrap;html=1;align=center;fontFamily=Helvetica;fontSize=11;fontColor=default;labelBackgroundColor=default;" parent="1" vertex="1">
          <mxGeometry x="60" y="200" width="120" height="60" as="geometry" />
        </mxCell>
      </root>
    </mxGraphModel>
  </diagram>
</mxfile>
